<svg id="Capa_1" data-name="Capa 1" xmlns="http://www.w3.org/2000/svg" viewBox="0 0 485.58 299.49"><defs><style>.cls-1{fill:#f2f2f2;}.cls-2,.cls-4{fill:#e6b73a;}.cls-3,.cls-5{fill:#be0024;}.cls-4{opacity:0.7;}.cls-5{opacity:0.5;}</style></defs><title>mastercard</title><rect class="cls-1" width="485.58" height="299.49" rx="25.7" ry="25.7"/><polygon class="cls-2" points="366.43 145.81 366.15 142.06 365.68 138.37 365.03 134.74 364.2 131.17 363.2 127.67 362.03 124.22 360.7 120.88 359.2 117.61 357.58 114.41 355.78 111.33 353.86 108.31 351.79 105.41 349.59 102.64 347.26 99.94 344.79 97.37 342.22 94.92 339.52 92.6 336.72 90.4 333.82 88.33 330.8 86.4 327.7 84.63 324.5 83 321.21 81.51 317.83 80.18 314.39 79.01 310.86 78.01 307.29 77.18 303.62 76.53 299.92 76.06 296.15 75.78 292.33 75.69 288.53 75.78 284.76 76.06 281.06 76.53 277.41 77.18 273.84 78.01 270.32 79.01 266.9 80.18 263.52 81.51 260.25 83 257.08 84.63 253.98 86.4 250.98 88.33 248.08 90.4 245.29 92.6 242.79 94.77 242.96 94.92 245.54 97.37 247.98 99.94 250.31 102.64 252.51 105.41 254.55 108.31 256.48 111.33 258.25 114.41 259.9 117.61 261.37 120.88 262.7 124.22 263.85 127.67 264.85 131.17 265.67 134.74 266.32 138.37 266.8 142.06 267.07 145.81 267.17 149.61 267.07 153.43 266.8 157.2 266.32 160.9 265.67 164.57 264.85 168.14 263.85 171.67 262.7 175.11 261.37 178.49 259.9 181.78 258.25 184.98 256.48 188.08 254.55 191.1 252.51 194 250.31 196.8 247.98 199.5 245.54 202.07 242.96 204.54 242.79 204.69 245.29 206.87 248.08 209.06 250.98 211.14 253.98 213.06 257.08 214.86 260.25 216.49 263.52 217.98 266.9 219.31 270.32 220.48 273.84 221.48 277.41 222.31 281.06 222.96 284.76 223.43 288.53 223.7 292.33 223.8 296.15 223.7 299.92 223.43 303.62 222.96 307.29 222.31 310.86 221.48 314.39 220.48 317.83 219.31 321.21 217.98 324.5 216.49 327.7 214.86 330.8 213.06 333.82 211.14 336.72 209.06 339.52 206.87 342.22 204.54 344.79 202.07 347.26 199.5 349.59 196.8 351.79 194 353.86 191.1 355.78 188.08 357.58 184.98 359.2 181.78 360.7 178.49 362.03 175.11 363.2 171.67 364.2 168.14 365.03 164.57 365.68 160.9 366.15 157.2 366.43 153.43 366.52 149.61 366.43 145.81"/><polygon class="cls-3" points="240.04 202.07 237.59 199.5 235.27 196.8 233.07 194 231.02 191.1 229.1 188.08 227.32 184.98 225.68 181.78 224.2 178.49 222.88 175.11 221.73 171.67 220.73 168.14 219.9 164.57 219.25 160.9 218.78 157.2 218.5 153.43 218.41 149.61 218.5 145.81 218.78 142.06 219.25 138.37 219.9 134.74 220.73 131.17 221.73 127.67 222.88 124.22 224.2 120.88 225.68 117.61 227.32 114.41 229.1 111.33 231.02 108.31 233.07 105.41 235.27 102.64 237.59 99.94 240.04 97.37 242.61 94.92 242.79 94.77 240.29 92.6 237.49 90.4 234.59 88.33 231.6 86.4 228.5 84.63 225.32 83 222.05 81.51 218.68 80.18 215.26 79.01 211.74 78.01 208.16 77.18 204.51 76.53 200.82 76.06 197.04 75.78 193.25 75.69 189.43 75.78 185.65 76.06 181.96 76.53 178.28 77.18 174.71 78.01 171.19 79.01 167.74 80.18 164.37 81.51 161.07 83 157.87 84.63 154.78 86.4 151.75 88.33 148.85 90.4 146.06 92.6 143.36 94.92 140.78 97.37 138.31 99.94 135.99 102.64 133.79 105.41 131.72 108.31 129.79 111.33 127.99 114.41 126.37 117.61 124.87 120.88 123.55 124.22 122.37 127.67 121.37 131.17 120.55 134.74 119.9 138.37 119.42 142.06 119.15 145.81 119.05 149.61 119.15 153.43 119.42 157.2 119.9 160.9 120.55 164.57 121.37 168.14 122.37 171.67 123.55 175.11 124.87 178.49 126.37 181.78 127.99 184.98 129.79 188.08 131.72 191.1 133.79 194 135.99 196.8 138.31 199.5 140.78 202.07 143.36 204.54 146.06 206.87 148.85 209.06 151.75 211.14 154.78 213.06 157.87 214.86 161.07 216.49 164.37 217.98 167.74 219.31 171.19 220.48 174.71 221.48 178.28 222.31 181.96 222.96 185.65 223.43 189.43 223.7 193.25 223.8 197.04 223.7 200.82 223.43 204.51 222.96 208.16 222.31 211.74 221.48 215.26 220.48 218.68 219.31 222.05 217.98 225.32 216.49 228.5 214.86 231.6 213.06 234.59 211.14 237.49 209.06 240.29 206.87 242.79 204.69 242.61 204.54 240.04 202.07"/><polygon class="cls-4" points="245.54 202.07 247.98 199.5 250.31 196.8 252.51 194 254.55 191.1 256.48 188.08 258.25 184.98 259.9 181.78 261.37 178.49 262.7 175.11 263.85 171.67 264.85 168.14 265.67 164.57 266.32 160.9 266.8 157.2 267.07 153.43 267.17 149.61 267.07 145.81 266.8 142.06 266.32 138.37 265.67 134.74 264.85 131.17 263.85 127.67 262.7 124.22 261.37 120.88 259.9 117.61 258.25 114.41 256.48 111.33 254.55 108.31 252.51 105.41 250.31 102.64 247.98 99.94 245.54 97.37 242.96 94.92 242.79 94.77 242.61 94.92 240.04 97.37 237.59 99.94 235.27 102.64 233.07 105.41 231.02 108.31 229.1 111.33 227.32 114.41 225.68 117.61 224.2 120.88 222.88 124.22 221.73 127.67 220.73 131.17 219.9 134.74 219.25 138.37 218.78 142.06 218.5 145.81 218.41 149.61 218.5 153.43 218.78 157.2 219.25 160.9 219.9 164.57 220.73 168.14 221.73 171.67 222.88 175.11 224.2 178.49 225.68 181.78 227.32 184.98 229.1 188.08 231.02 191.1 233.07 194 235.27 196.8 237.59 199.5 240.04 202.07 242.61 204.54 242.79 204.69 242.96 204.54 245.54 202.07"/><polygon class="cls-5" points="245.54 202.07 247.98 199.5 250.31 196.8 252.51 194 254.55 191.1 256.48 188.08 258.25 184.98 259.9 181.78 261.37 178.49 262.7 175.11 263.85 171.67 264.85 168.14 265.67 164.57 266.32 160.9 266.8 157.2 267.07 153.43 267.17 149.61 267.07 145.81 266.8 142.06 266.32 138.37 265.67 134.74 264.85 131.17 263.85 127.67 262.7 124.22 261.37 120.88 259.9 117.61 258.25 114.41 256.48 111.33 254.55 108.31 252.51 105.41 250.31 102.64 247.98 99.94 245.54 97.37 242.96 94.92 242.79 94.77 242.61 94.92 240.04 97.37 237.59 99.94 235.27 102.64 233.07 105.41 231.02 108.31 229.1 111.33 227.32 114.41 225.68 117.61 224.2 120.88 222.88 124.22 221.73 127.67 220.73 131.17 219.9 134.74 219.25 138.37 218.78 142.06 218.5 145.81 218.41 149.61 218.5 153.43 218.78 157.2 219.25 160.9 219.9 164.57 220.73 168.14 221.73 171.67 222.88 175.11 224.2 178.49 225.68 181.78 227.32 184.98 229.1 188.08 231.02 191.1 233.07 194 235.27 196.8 237.59 199.5 240.04 202.07 242.61 204.54 242.79 204.69 242.96 204.54 245.54 202.07"/></svg>