<svg id="Capa_1" data-name="Capa 1" xmlns="http://www.w3.org/2000/svg" viewBox="0 0 485.58 299.49"><defs><style>.cls-1{fill:#f2f2f2;}.cls-2{fill:#00a2d3;}.cls-2,.cls-3,.cls-4{fill-rule:evenodd;}.cls-3{fill:#1b3d92;}.cls-4{fill:#1b2e7f;}</style></defs><title>paypal</title><rect class="cls-1" width="485.58" height="299.49" rx="25.7" ry="25.7"/><path class="cls-2" d="M286.51,250.39h38.74c20.8,0,28.64,10.53,27.43,26-2,25.54-17.44,39.66-37.92,39.66H304.41c-2.8,0-4.69,1.86-5.46,6.9l-4.43,29.28c-.29,1.91-1.29,3-2.8,3.16H267.43c-2.29,0-3.1-1.75-2.5-5.54L279.77,256C280.36,252.18,282.42,250.39,286.51,250.39Z" transform="translate(-52.13 -137)"/><path class="cls-3" d="M262.29,218.06h38.78c10.92,0,23.88.36,32.55,8,5.79,5.11,8.82,13.24,8.12,22-2.38,29.61-20.09,46.2-43.84,46.2H278.77c-3.26,0-5.42,2.16-6.33,8l-5.34,33.95c-.35,2.21-1.3,3.5-3.05,3.66H240.16c-2.65,0-3.59-2-2.9-6.42l17.21-108.92C255.16,220.14,257.54,218.06,262.29,218.06Z" transform="translate(-52.13 -137)"/><path class="cls-4" d="M273,298.81,279.77,256c.59-3.77,2.65-5.56,6.74-5.56h38.74c6.42,0,11.6,1,15.66,2.85-3.89,26.35-20.94,41-43.26,41H278.52C276,294.24,274.12,295.52,273,298.81Z" transform="translate(-52.13 -137)"/></svg>