<svg id="Capa_1" data-name="Capa 1" xmlns="http://www.w3.org/2000/svg" viewBox="0 0 485.58 299.49"><defs><style>.cls-1{fill:#2a75ad;}.cls-2{fill:#fff;fill-rule:evenodd;}</style></defs><title>visa</title><rect class="cls-1" width="485.58" height="299.49" rx="25.7" ry="25.7"/><polygon class="cls-2" points="192.88 188.53 216.56 110.45 237.68 110.45 214.01 188.53 192.88 188.53 192.88 188.53"/><path class="cls-2" d="M240.64,260.73l-19,33.09c-4.82,8.68-7.65,13.05-9,18.53h-.3c.35-6.94-.63-15.46-.71-20.29l-2.11-31.33H173.94l-.36,2.1c9.14,0,14.55,4.6,16,14l6.92,62h21.89l44.26-78.06Z" transform="translate(-57.21 -150.26)"/><path class="cls-2" d="M404.93,338.79l-.59-11.62-26.37,0-5.4,11.64H349.64l41.58-77.93h28.15l7.05,77.93Zm-2.43-46.06a181.12,181.12,0,0,1,0-18.34h-.32c-1.28,3.88-6.8,15.52-9.24,21.24l-7.85,17.11h18.52l-1.08-20Z" transform="translate(-57.21 -150.26)"/><path class="cls-2" d="M317.08,341a59.12,59.12,0,0,1-31.88-8.94l10.05-15.38c6.35,3.55,11.33,7.65,22.8,7.65,3.67,0,7.23-1,9.24-4.46,2.94-5.07-.67-7.81-8.93-12.47l-4.07-2.66c-12.23-8.36-17.53-16.3-11.77-30.16C306.21,265.72,315.92,259,332,259a47.33,47.33,0,0,1,27.47,9.46L347.86,282c-5.9-4.77-10.78-7.18-16.38-7.18-4.45,0-7.85,1.72-9,4-2.2,4.36.71,7.33,7.14,11.32l4.85,3.08c14.85,9.37,18.39,19.19,14.66,28.37-6.4,15.81-18.94,19.34-32,19.34Z" transform="translate(-57.21 -150.26)"/></svg>